# xmcd
#
# Track frame offsets:
#	150
#	15501
#	34204
#	51706
#	65960
#	86547
#	109093
#	131414
#	147527
#	160965
#
# Disc length: 2472 seconds
#
# Revision: 1
# Processed by: cddbd v1.5.2PL0 Copyright (c) Steve Scherf et al.
# Submitted via: audiograbber 1.83.01
#
DISCID=9309a60a
DTITLE=Gibson, Scott - Make ready
DYEAR=2003
DGENRE=Country
TTITLE0=I believe
TTITLE1=Make ready
TTITLE2=Put away the blues
TTITLE3=Robin-On-Hudson
TTITLE4=Hand it over
TTITLE5=Ballad of the balladeer (Saturday night)
TTITLE6=Sunday social
TTITLE7=I can't tarry long
TTITLE8=Kripalu
TTITLE9=The hardest part of hurtin' (is the hope)
EXTD=
EXTT0=
EXTT1=
EXTT2=
EXTT3=
EXTT4=
EXTT5=
EXTT6=
EXTT7=
EXTT8=
EXTT9=
PLAYORDER=
